<?xml version="1.0" encoding="UTF-8" standalone="no"?>
<!-- Created with Inkscape (http://www.inkscape.org/) -->

<svg
   version="1.1"
   id="svg1"
   width="600"
   height="600"
   viewBox="0 0 600 600"
   sodipodi:docname="software.svg"
   inkscape:version="1.3.2 (091e20e, 2023-11-25)"
   inkscape:export-filename="../tuning_fork.png"
   inkscape:export-xdpi="16"
   inkscape:export-ydpi="16"
   xml:space="preserve"
   xmlns:inkscape="http://www.inkscape.org/namespaces/inkscape"
   xmlns:sodipodi="http://sodipodi.sourceforge.net/DTD/sodipodi-0.dtd"
   xmlns="http://www.w3.org/2000/svg"
   xmlns:svg="http://www.w3.org/2000/svg"><defs
     id="defs1" /><sodipodi:namedview
     id="namedview1"
     pagecolor="#ffffff"
     bordercolor="#666666"
     borderopacity="1.0"
     inkscape:showpageshadow="2"
     inkscape:pageopacity="0.0"
     inkscape:pagecheckerboard="0"
     inkscape:deskcolor="#d1d1d1"
     inkscape:zoom="0.3779297"
     inkscape:cx="623.13177"
     inkscape:cy="706.48061"
     inkscape:window-width="1864"
     inkscape:window-height="1016"
     inkscape:window-x="56"
     inkscape:window-y="27"
     inkscape:window-maximized="1"
     inkscape:current-layer="g1" /><g
     inkscape:groupmode="layer"
     inkscape:label="Image"
     id="g1"><g
       id="g3"
       transform="rotate(90,293.32472,301.3588)"><g
         id="g2"
         transform="translate(12.544008,-72.924612)" /><text
         xml:space="preserve"
         style="font-weight:bold;font-size:96px;line-height:1.25;font-family:'DejaVu Sans';-inkscape-font-specification:'DejaVu Sans Bold';fill:#000000;fill-opacity:1"
         x="31.58252"
         y="547.1413"
         id="text2"><tspan
           sodipodi:role="line"
           id="tspan2"
           x="31.58252"
           y="547.1413"
           style="font-style:normal;font-variant:normal;font-weight:bold;font-stretch:normal;font-size:96px;font-family:'DejaVu Sans';-inkscape-font-specification:'DejaVu Sans Bold';fill:#000000;fill-opacity:1">Software</tspan></text></g><path
       style="fill:#000000;stroke-width:0.308703"
       d="m 305.08114,484.06933 c -5.4456,-1.4091 -18.4307,-6.6726 -26.5442,-10.7596 -6.08699,-3.0662 -6.96487,-5.0015 -5.52879,-12.1888 0.89129,-4.4606 0.88432,-11.1607 -0.0168,-16.1942 -2.67218,-14.9253 -12.03308,-29.8293 -25.3592,-40.37581 -8.97591,-7.10363 -18.66768,-11.55463 -29.12978,-13.37795 -4.23895,-0.73876 -11.25058,-0.65661 -15.29314,0.17917 -5.22393,1.08003 -7.31095,0.78948 -9.5216,-1.32566 -2.99167,-2.86239 -13.62201,-28.37199 -13.67508,-32.81608 -0.0194,-1.64041 0.74265,-3.72441 1.80051,-4.92261 0.30729,-0.34806 1.73951,-1.41848 3.1827,-2.37877 10.30441,-6.85638 17.55263,-17.75174 21.10577,-31.72567 1.70657,-6.71166 2.17595,-10.63874 2.17595,-18.20529 0,-7.53771 -0.46993,-11.49536 -2.14952,-18.10224 -3.49934,-13.76512 -10.78281,-24.81021 -20.81973,-31.57231 -3.09012,-2.08188 -3.656,-2.5992 -4.39902,-4.0215 -1.2921,-2.4734 -1.18159,-4.27136 0.57373,-9.33331 3.97473,-11.4621 10.0864,-24.99232 12.20469,-27.01907 2.03241,-1.94456 4.62922,-2.398 8.50263,-1.48466 3.17792,0.74935 8.27275,1.08374 12.13228,0.79629 24.82647,-1.84904 49.63096,-22.74484 57.29187,-48.26381 2.10319,-7.00586 2.66721,-15.91275 1.39545,-22.03644 -1.08788,-5.23823 -0.79082,-7.44861 1.29385,-9.62744 2.02548,-2.11696 14.63313,-7.83022 26.43703,-11.98014 5.4076,-1.90115 7.1363,-2.10216 9.3184,-1.08353 1.9051,0.88928 2.4833,1.47168 4.5365,4.56888 2.4404,3.68153 4.7445,6.32334 7.7729,8.91257 8.4977,7.26523 19.232,11.80624 32.5681,13.77759 3.6576,0.54066 15.1734,0.54066 18.8309,0 10.8691,-1.60667 19.7194,-4.79637 27.3202,-9.84629 5.932,-3.9412 9.4672,-7.4743 13.3787,-13.37123 1.6742,-2.52397 2.1502,-3.01798 3.6422,-3.78107 2.5552,-1.30676 4.1306,-1.2096 9.2189,0.56858 11.7144,4.09375 25.05,10.12036 27.0731,12.23464 1.9446,2.03245 2.4196,4.8539 1.473,8.74982 -1.6535,6.80543 -0.9807,16.3373 1.7327,24.54188 9.1217,27.58306 38.2675,48.91632 63.6598,46.59567 1.8338,-0.16759 4.1954,-0.50778 5.2479,-0.75597 3.8734,-0.91334 6.4702,-0.4599 8.5026,1.48466 2.9753,2.84668 13.6222,28.38717 13.675,32.80426 0.02,1.67802 -0.738,3.7893 -1.7778,4.95143 -0.3198,0.35739 -2.0399,1.62975 -3.8227,2.82748 -11.3862,7.64966 -19.056,20.98858 -21.9635,38.1976 -0.5573,3.29897 -0.6808,5.27668 -0.6934,11.11331 -0.015,7.14807 0.1362,8.79118 1.3955,15.12644 2.9994,15.08937 10.8244,27.60501 21.8414,34.93433 2.991,1.98981 3.524,2.51077 4.3697,4.27094 1.0393,2.16305 0.8195,4.1451 -1.0515,9.47545 -4.1036,11.69218 -9.8531,24.36758 -11.9728,26.39561 -2.2106,2.11514 -4.2976,2.40569 -9.5215,1.32566 -2.4905,-0.51489 -4.3142,-0.66961 -7.872,-0.66785 -8.4393,0.004 -15.8787,1.86911 -24.3743,6.11013 -14.5782,7.27748 -27.026,20.26911 -33.4843,34.94751 -1.5327,3.4837 -3.2372,8.7925 -3.882,12.0917 -1.1035,5.6454 -1.1061,13.6023 -0.01,18.2686 0.9224,3.9125 0.4751,6.5012 -1.4758,8.5404 -2.1036,2.1988 -15.7776,8.3542 -27.6905,12.465 -4.4293,1.5284 -6.1429,1.5966 -8.5887,0.3421 -1.5171,-0.7783 -1.9651,-1.2624 -4.0937,-4.424 -7.9907,-11.8681 -21.8132,-19.741 -39.334,-22.4035 -5.1514,-0.7828 -15.5317,-0.7828 -20.6831,0 -17.5209,2.6625 -31.3434,10.5354 -39.334,22.4035 -2.1417,3.1809 -2.5643,3.6358 -4.0634,4.3741 -2.1496,1.0585 -3.4299,1.2135 -5.532,0.6695 z m 70.2299,-73.296 c 47.1513,-4.5386 86.8081,-39.43147 97.5033,-85.79034 5.8673,-25.43201 2.6312,-51.97967 -9.1622,-75.1637 -17.4345,-34.27319 -50.5466,-56.86446 -88.9585,-60.69326 -5.1605,-0.51438 -16.6603,-0.4411 -21.9179,0.13967 -34.5434,3.81577 -64.6875,22.81158 -83.15648,52.40245 -15.28079,24.4828 -20.28976,54.8789 -13.72944,83.31484 9.36882,40.60956 40.89482,72.72775 81.49482,83.02554 6.3572,1.6125 13.511,2.661 22.0282,3.2286 2.6379,0.1758 12.1305,-0.1011 15.8982,-0.4638 z m -15.5895,-40.59842 c -14.0263,-0.96075 -27.9283,-6.36225 -39.2435,-15.24774 -3.2743,-2.57121 -8.5039,-7.80076 -11.0751,-11.07505 -6.463,-8.23033 -11.4861,-18.63149 -13.5672,-28.09314 -1.3214,-6.00737 -1.6699,-9.30146 -1.6699,-15.78092 0,-11.58038 2.1983,-21.04303 7.2347,-31.14181 3.7478,-7.51486 7.5462,-12.82467 13.2656,-18.54412 5.7195,-5.71945 11.0293,-9.51785 18.5441,-13.26562 10.0988,-5.03641 19.5615,-7.23473 31.1419,-7.23473 11.5803,0 21.043,2.19832 31.1417,7.23473 7.5149,3.74777 12.8247,7.54617 18.5442,13.26562 5.7194,5.71945 9.5178,11.02926 13.2656,18.54412 5.0364,10.09878 7.2347,19.56143 7.2347,31.14181 0,6.47946 -0.3485,9.77355 -1.6699,15.78092 -2.0843,9.47616 -7.0856,19.83317 -13.5672,28.09579 -4.3333,5.52393 -11.6901,12.04664 -18.0495,16.00298 -5.4707,3.40345 -14.3018,7.07624 -20.4341,8.49843 -6.06,1.4054 -15.3888,2.20967 -21.0961,1.81873 z"
       id="path5" /></g></svg>
