<?xml version="1.0" encoding="UTF-8" standalone="no"?>
<!-- Created with Inkscape (http://www.inkscape.org/) -->

<svg
   version="1.1"
   id="svg1"
   width="600"
   height="600"
   viewBox="0 0 600 600"
   sodipodi:docname="tuning_fork.svg"
   inkscape:version="1.3.2 (091e20e, 2023-11-25)"
   inkscape:export-filename="../tuning_fork.png"
   inkscape:export-xdpi="16"
   inkscape:export-ydpi="16"
   xmlns:inkscape="http://www.inkscape.org/namespaces/inkscape"
   xmlns:sodipodi="http://sodipodi.sourceforge.net/DTD/sodipodi-0.dtd"
   xmlns="http://www.w3.org/2000/svg"
   xmlns:svg="http://www.w3.org/2000/svg">
  <defs
     id="defs1" />
  <sodipodi:namedview
     id="namedview1"
     pagecolor="#ffffff"
     bordercolor="#666666"
     borderopacity="1.0"
     inkscape:showpageshadow="2"
     inkscape:pageopacity="0.0"
     inkscape:pagecheckerboard="0"
     inkscape:deskcolor="#d1d1d1"
     inkscape:zoom="0.75585939"
     inkscape:cx="361.83979"
     inkscape:cy="329.42635"
     inkscape:window-width="1864"
     inkscape:window-height="1016"
     inkscape:window-x="56"
     inkscape:window-y="27"
     inkscape:window-maximized="1"
     inkscape:current-layer="g1" />
  <g
     inkscape:groupmode="layer"
     inkscape:label="Image"
     id="g1">
    <g
       id="g3"
       transform="rotate(90,293.32472,301.3588)">
      <g
         id="g2"
         transform="translate(12.544008,-72.924612)">
        <path
           style="fill:#000000;fill-opacity:1"
           d="m 271.11491,476.25358 c -9.19284,-2.40473 -18.11897,-9.75241 -21.71027,-17.87114 -1.12769,-2.54933 -2.27638,-7.4511 -2.55265,-10.89282 -0.66581,-8.29464 1.5788,-15.00235 7.85893,-23.48527 8.25243,-11.14703 7.90399,-4.16178 7.90399,-28.69002 0,-26.71919 -0.0501,-23.15251 -6.29988,-31.41374 -1.78674,-2.36177 -6.6127,-6.50977 -10.72436,-9.21778 -13.57946,-8.94365 -22.39993,-19.96799 -27.79655,-34.74175 l -2.67921,-7.3346 V 183.42997 c 0,-88.29038 0.004,-88.64718 2.06179,-91.40315 3.89786,-5.22109 7.12204,-6.88529 13.33938,-6.88529 4.75726,0 6.38857,0.48362 9.41324,2.79065 2.0123,1.53485 4.22727,3.78485 4.92216,5 0.99229,1.7352 1.41283,-0.37734 1.76343,88.67428 l 0.5,127 2.47614,5 c 3.16507,6.39113 9.16484,12.38139 15.52386,15.49924 4.10678,2.01356 6.51847,2.45341 13.5,2.46211 7.29475,0.009 9.22423,-0.36951 13.6076,-2.67006 6.34471,-3.32994 13.61736,-11.28077 16.05037,-17.54709 1.74467,-4.49345 1.86845,-11.41318 2.34203,-130.92124 0.32591,-82.24335 0.51123,-85.65702 2.56179,-88.40314 3.91826,-5.24738 7.11421,-6.88475 13.43821,-6.88475 6.32432,0 9.52059,1.63768 13.43821,6.88536 2.05749,2.75602 2.06179,-2.64751 2.06179,91.40314 v 129.17643 l -2.67941,7.33492 c -5.39687,14.77403 -14.21688,25.79777 -27.79635,34.74143 -4.11166,2.70801 -8.93762,6.85601 -10.72436,9.21778 -6.25506,8.26817 -6.29988,5.72283 -6.29988,31.89025 0,17.14759 0.34708,15.08645 1.1227,17.43482 0.61748,1.86957 3.1519,6.06383 5.63203,9.32058 6.85565,9.00239 8.70146,13.78281 8.71802,22.57864 0.0243,12.89421 -6.67967,23.45849 -18.2471,28.75423 -5.79916,2.65494 -15.43381,3.75875 -20.72565,2.37447 z m -159.03123,-177.546 c -8.94409,-3.89662 -26.512009,-30.01054 -33.759739,-50.18234 -5.25536,-14.62668 -7.17182,-26.4963 -7.17182,-44.41878 0,-17.92248 1.91646,-29.7921 7.17182,-44.41878 8.25501,-22.97523 27.134829,-49.38473 36.540959,-51.11427 8.55898,-1.57377 16.34273,3.10396 18.79725,11.29641 1.7415,5.81262 0.14515,10.69933 -5.69495,17.4333 -10.65363,12.2842 -18.10599,26.35089 -22.58376,42.62791 -3.05969,11.12222 -3.05969,37.22864 0,48.35086 4.47777,16.27702 11.93013,30.34371 22.58376,42.62793 5.70119,6.57379 7.42818,11.64827 5.80641,17.06124 -2.95644,9.86773 -12.65951,14.67075 -21.68993,10.73652 z m 319.73976,-0.26888 c -4.11473,-2.02797 -6.8722,-5.47762 -8.36724,-10.46764 -1.62177,-5.41297 0.10522,-10.48745 5.80642,-17.06124 10.65362,-12.28422 18.10598,-26.35091 22.58375,-42.62793 3.0597,-11.12222 3.0597,-37.22864 0,-48.35086 -4.47777,-16.27702 -11.93013,-30.34371 -22.58375,-42.62791 -5.84011,-6.73397 -7.43646,-11.62068 -5.69495,-17.4333 2.45451,-8.19245 10.23826,-12.87018 18.79724,-11.29641 9.13449,1.67959 27.3814,26.79589 35.9856,49.53305 4.16681,11.01107 7.24735,26.59458 7.90719,40 1.67635,34.05708 -10.62426,68.81843 -33.22512,93.89375 -7.18364,7.97013 -13.93994,10.02115 -21.20914,6.43849 z M 159.95689,266.70963 c -7.0608,-3.19561 -18.09827,-22.11035 -22.52643,-38.60317 -3.30091,-12.29437 -3.30091,-35.70563 0,-48 4.595,-17.1142 15.57973,-35.59591 22.99922,-38.69596 8.10026,-3.3845 17.52042,0.76987 20.71534,9.13562 2.29859,6.01877 1.47549,9.54966 -4.39233,18.84214 -7.46308,11.81878 -9.62117,19.59895 -9.63027,34.7182 -0.009,15.13535 2.12058,22.82561 9.60235,34.67398 5.89591,9.33696 6.72094,12.86207 4.42025,18.88636 -3.2013,8.38249 -13.20949,12.65385 -21.18813,9.04283 z m 224.10844,0.0456 c -9.3535,-4.24394 -12.20007,-16.25552 -5.85842,-24.72061 8.18763,-10.92916 11.83485,-22.61773 11.83485,-37.92816 0,-15.52781 -3.21766,-25.84468 -11.80854,-37.86207 -2.63343,-3.68378 -3.11831,-5.26621 -3.11831,-10.17667 0,-6.23436 1.6516,-9.49208 6.7373,-13.2891 3.78785,-2.82803 11.40868,-3.25951 15.7627,-0.89244 7.51608,4.08612 17.4618,21.57588 22.20324,39.04485 2.76596,10.1907 3.04113,34.23577 0.50824,44.41274 -4.00664,16.09841 -13.82266,34.85741 -20.86309,39.87065 -3.79664,2.70344 -11.2023,3.4445 -15.39797,1.54081 z"
           id="path1-3"
           sodipodi:nodetypes="sssssssscscsssscsscssssssscssssssssssssssscssssssssssssssssssssssscssssssssssssss" />
      </g>
      <text
         xml:space="preserve"
         style="font-weight:bold;font-size:96px;line-height:1.25;font-family:'DejaVu Sans';-inkscape-font-specification:'DejaVu Sans Bold';fill:#000000;fill-opacity:1"
         x="127.58252"
         y="547.1413"
         id="text2"><tspan
           sodipodi:role="line"
           id="tspan2"
           x="127.58252"
           y="547.1413"
           style="font-style:normal;font-variant:normal;font-weight:bold;font-stretch:normal;font-size:96px;font-family:'DejaVu Sans';-inkscape-font-specification:'DejaVu Sans Bold';fill:#000000;fill-opacity:1">Tuning</tspan></text>
    </g>
  </g>
</svg>
