<?xml version="1.0" encoding="UTF-8" standalone="no"?>
<!-- Created with Inkscape (http://www.inkscape.org/) -->

<svg
   version="1.1"
   id="svg1"
   width="600"
   height="600"
   viewBox="0 0 600 600"
   sodipodi:docname="advanced.svg"
   inkscape:version="1.3.2 (091e20e, 2023-11-25)"
   inkscape:export-filename="../tuning_fork.png"
   inkscape:export-xdpi="16"
   inkscape:export-ydpi="16"
   xml:space="preserve"
   xmlns:inkscape="http://www.inkscape.org/namespaces/inkscape"
   xmlns:sodipodi="http://sodipodi.sourceforge.net/DTD/sodipodi-0.dtd"
   xmlns="http://www.w3.org/2000/svg"
   xmlns:svg="http://www.w3.org/2000/svg"><defs
     id="defs1" /><sodipodi:namedview
     id="namedview1"
     pagecolor="#ffffff"
     bordercolor="#666666"
     borderopacity="1.0"
     inkscape:showpageshadow="2"
     inkscape:pageopacity="0.0"
     inkscape:pagecheckerboard="0"
     inkscape:deskcolor="#d1d1d1"
     inkscape:zoom="0.3779297"
     inkscape:cx="623.13177"
     inkscape:cy="706.48061"
     inkscape:window-width="1864"
     inkscape:window-height="1016"
     inkscape:window-x="56"
     inkscape:window-y="27"
     inkscape:window-maximized="1"
     inkscape:current-layer="g1" /><g
     inkscape:groupmode="layer"
     inkscape:label="Image"
     id="g1"><g
       id="g3"
       transform="rotate(90,293.32472,301.3588)"><g
         id="g2"
         transform="translate(12.544008,-72.924612)" /><text
         xml:space="preserve"
         style="font-weight:bold;font-size:96px;line-height:1.25;font-family:'DejaVu Sans';-inkscape-font-specification:'DejaVu Sans Bold';fill:#000000;fill-opacity:1"
         x="31.58252"
         y="547.1413"
         id="text2"><tspan
           sodipodi:role="line"
           id="tspan2"
           x="31.58252"
           y="547.1413"
           style="font-style:normal;font-variant:normal;font-weight:bold;font-stretch:normal;font-size:96px;font-family:'DejaVu Sans';-inkscape-font-specification:'DejaVu Sans Bold';fill:#000000;fill-opacity:1">Advanced</tspan></text></g><path
       style="fill:#000000;stroke-width:0.230148"
       d="m 261.54957,471.63532 c -5.01076,-0.4445 -10.04463,-1.8551 -14.61955,-4.0967 -10.17683,-4.9863 -17.57086,-13.1373 -21.62572,-23.8397 l -0.95916,-2.5316 -17.70621,-0.1165 -17.7062,-0.1164 -1.38062,-0.5238 c -8.59715,-3.2615 -10.81592,-14.3313 -4.11852,-20.5481 1.29318,-1.2004 2.68682,-2.0552 4.34839,-2.6671 1.06975,-0.394 2.39695,-0.4319 18.85693,-0.5389 l 17.70618,-0.115 0.95937,-2.5317 c 4.0336,-10.64408 11.50148,-18.88811 21.57419,-23.81643 14.74514,-7.21441 32.39427,-5.17801 45.27545,5.22406 6.08801,4.91635 11.14109,12.16301 13.68662,19.62807 l 0.51012,1.496 103.66037,0.115 c 99.9572,0.111 103.7014,0.1303 104.811,0.5389 1.6617,0.6119 3.0553,1.4667 4.3485,2.6671 6.6977,6.2172 4.4807,17.2787 -4.1186,20.5495 l -1.3806,0.5251 -103.6603,0.1151 -103.66037,0.1151 -0.51012,1.496 c -5.51239,16.1658 -20.12575,27.5907 -37.08839,28.9961 -3.07094,0.2544 -4.10131,0.251 -7.20276,-0.024 z m 8.39524,-24.9575 c 0.75949,-0.2058 2.12395,-0.7168 3.03211,-1.1357 14.32552,-6.6068 14.32552,-26.7646 0,-33.376 -2.7447,-1.26669 -4.27884,-1.5852 -7.63506,-1.5852 -3.52818,0 -4.99489,0.33028 -8.05519,1.8141 -4.47287,2.1686 -7.66859,5.8377 -9.38037,10.77 -0.70556,2.0331 -0.73645,2.2717 -0.73645,5.6894 0,3.4176 0.0309,3.6563 0.73645,5.6893 0.77781,2.2412 1.99405,4.4344 3.44297,6.2085 2.55382,3.1272 7.12796,5.6675 11.46096,6.3652 1.29932,0.2093 5.75241,-0.065 7.13458,-0.4396 z m 162.5996,-61.00407 c -8.7258,-1.08676 -16.8451,-4.69912 -23.3694,-10.39731 -5.2391,-4.57572 -9.4922,-10.7847 -12.0922,-17.65285 l -0.8712,-2.30144 -103.52438,-0.11571 c -86.47412,-0.0966 -103.67598,-0.16726 -104.44495,-0.4288 -5.94311,-2.02145 -9.51551,-7.63506 -8.63315,-13.56598 0.76846,-5.1653 4.72798,-9.32509 9.79975,-10.29549 1.5161,-0.29005 15.49936,-0.33495 104.33119,-0.33495 h 102.58044 l 0.5314,-1.66858 c 0.2922,-0.91771 1.0721,-2.8078 1.7331,-4.2002 8.9963,-18.95289 29.5928,-28.57791 49.7537,-23.2506 10.0926,2.66686 19.2146,9.45641 25.0537,18.64765 1.232,1.93934 3.3559,6.32184 4.1547,8.57301 l 0.6738,1.89872 h 16.6118 c 18.6104,0 18.8736,0.0184 21.7413,1.5254 3.4311,1.80297 5.8437,5.22406 6.4211,9.10504 0.7726,5.19281 -1.9308,10.32452 -6.7164,12.7496 -2.4212,1.2269 -2.6217,1.23871 -21.0765,1.24237 -11.7646,0.004 -17.0885,0.0786 -17.0885,0.24476 0,0.57782 -2.4199,6.27019 -3.4685,8.15908 -2.3896,4.3044 -5.9586,8.73037 -9.4778,11.75355 -5.8946,5.06378 -12.369,8.24851 -19.8964,9.787 -1.713,0.35012 -3.4163,0.48073 -7.088,0.54348 -2.6582,0.0454 -5.1956,0.0375 -5.6386,-0.0179 z m 9.377,-24.97233 c 4.9336,-1.29226 9.386,-4.91777 11.6782,-9.50962 1.3489,-2.70185 1.7516,-4.27361 1.8965,-7.40092 0.1375,-2.96842 -0.2787,-5.50643 -1.3046,-7.95471 -1.8325,-4.37328 -5.6874,-8.18181 -10.0935,-9.9722 -3.6278,-1.47408 -8.791,-1.67155 -12.3748,-0.47328 -6.1642,2.06107 -10.6963,6.86004 -12.3301,13.05607 -0.6899,2.6163 -0.6853,6.44432 0.011,9.05034 1.9186,7.18174 7.9191,12.57328 15.2117,13.66773 1.9782,0.29689 5.1777,0.094 7.3057,-0.46341 z M 261.77456,299.81909 c -10.72253,-1.04881 -19.78623,-5.42461 -27.15845,-13.11158 -4.15044,-4.32763 -7.57988,-9.86948 -9.55897,-15.44693 l -0.67373,-1.89873 h -16.6119 c -18.61032,0 -18.87361,-0.0184 -21.7413,-1.52539 -3.39242,-1.78268 -5.8224,-5.22961 -6.43323,-9.12556 -0.97532,-6.22069 3.35717,-12.38876 9.63475,-13.71686 0.83795,-0.17728 6.54573,-0.25802 18.23923,-0.25802 11.7187,0 17.01963,-0.0752 17.01963,-0.24133 0,-0.57781 2.41987,-6.2702 3.46849,-8.15908 2.3896,-4.30442 5.9586,-8.73041 9.47779,-11.75359 6.04553,-5.19344 12.81821,-8.46071 20.54025,-9.90896 3.58124,-0.67167 11.71207,-0.61735 15.30484,0.10225 14.87937,2.98019 26.81976,13.17347 32.23137,27.51528 l 0.8793,2.33035 103.52438,0.11508 c 100.3365,0.11153 103.5598,0.1283 104.6751,0.54462 4.7291,1.7653 7.6357,5.22038 8.4281,10.01885 0.7975,4.82899 -1.9513,10.17496 -6.4462,12.53697 -3.1473,1.65389 5.925,1.52539 -107.7098,1.52539 h -102.5805 l -0.53137,1.66858 c -0.29226,0.91771 -1.07214,2.8078 -1.73306,4.2002 -6.53139,13.75983 -19.19996,22.82249 -34.23801,24.49269 -2.07591,0.23056 -6.13257,0.27908 -8.00671,0.0958 z m 9.09085,-25.24956 c 6.1,-1.99916 10.71408,-6.88509 12.34578,-13.07321 0.68987,-2.61632 0.68524,-6.44433 -0.011,-9.05034 -1.97147,-7.37969 -8.01449,-12.66964 -15.64456,-13.69496 -7.41125,-0.9959 -15.14213,3.17155 -18.55111,10.00023 -1.3488,2.70187 -1.75156,4.27364 -1.89644,7.40094 -0.24536,5.29561 1.36356,9.67291 4.95461,13.47961 2.51717,2.66833 5.83551,4.56268 9.36658,5.34709 2.53331,0.56276 7.0704,0.36592 9.43607,-0.40936 z m 162.4618,-60.69352 c -6.5164,-0.58204 -13.7252,-3.10244 -19.304,-6.74916 -7.9286,-5.18284 -14.2021,-13.26267 -17.2597,-22.2293 l -0.5101,-1.49597 -103.66035,-0.11507 c -99.95721,-0.11098 -103.70146,-0.13022 -104.81108,-0.53887 -1.66157,-0.61194 -3.05521,-1.46671 -4.34839,-2.66711 -6.69772,-6.21713 -4.48077,-17.27862 4.11852,-20.5495 l 1.38062,-0.52513 103.66033,-0.11507 103.66035,-0.11508 0.5101,-1.49596 c 2.5455,-7.46508 7.5986,-14.71173 13.6867,-19.62808 12.8812,-10.40207 30.5303,-12.43851 45.2754,-5.22406 10.0727,4.92832 17.5406,13.17245 21.5742,23.81647 l 0.9593,2.53163 17.7062,0.11508 17.7062,0.11507 1.3806,0.52513 c 8.5993,3.27088 10.8163,14.33237 4.1186,20.5495 -1.2932,1.2004 -2.6868,2.05517 -4.3485,2.66711 -1.0697,0.39397 -2.3969,0.4319 -18.8569,0.53887 l -17.7062,0.11507 -0.9592,2.53163 c -4.0505,10.69102 -11.4598,18.85879 -21.6257,23.8397 -6.9134,3.38734 -14.5868,4.79623 -22.347,4.1031 z m 8.5381,-24.95727 c 0.7595,-0.20209 2.313,-0.81912 3.4523,-1.37118 4.472,-2.16705 7.6685,-5.83692 9.3803,-10.76957 0.7056,-2.03301 0.7365,-2.27167 0.7365,-5.68932 0,-3.41765 -0.031,-3.65632 -0.7365,-5.68935 -1.7118,-4.93231 -4.9075,-8.60146 -9.3803,-10.7701 -3.0604,-1.48374 -4.527,-1.81405 -8.0552,-1.81405 -3.3672,0 -4.889,0.31788 -7.6732,1.60284 -6.6177,3.05427 -10.7047,9.41897 -10.7047,16.67066 0,9.15059 6.6171,16.77693 15.8463,18.26307 1.2864,0.20715 5.746,-0.0635 7.1345,-0.433 z"
       id="path4" /></g></svg>
