<?xml version="1.0" encoding="UTF-8" standalone="no"?>
<!-- Created with Inkscape (http://www.inkscape.org/) -->

<svg
   version="1.1"
   id="svg1"
   width="600"
   height="600"
   viewBox="0 0 600 600"
   sodipodi:docname="cv.svg"
   inkscape:version="1.3.2 (091e20e, 2023-11-25)"
   inkscape:export-filename="../tuning_fork.png"
   inkscape:export-xdpi="16"
   inkscape:export-ydpi="16"
   xml:space="preserve"
   xmlns:inkscape="http://www.inkscape.org/namespaces/inkscape"
   xmlns:sodipodi="http://sodipodi.sourceforge.net/DTD/sodipodi-0.dtd"
   xmlns="http://www.w3.org/2000/svg"
   xmlns:svg="http://www.w3.org/2000/svg"><defs
     id="defs1" /><sodipodi:namedview
     id="namedview1"
     pagecolor="#ffffff"
     bordercolor="#666666"
     borderopacity="1.0"
     inkscape:showpageshadow="2"
     inkscape:pageopacity="0.0"
     inkscape:pagecheckerboard="0"
     inkscape:deskcolor="#d1d1d1"
     inkscape:zoom="0.75585939"
     inkscape:cx="360.51679"
     inkscape:cy="349.27131"
     inkscape:window-width="1864"
     inkscape:window-height="1016"
     inkscape:window-x="56"
     inkscape:window-y="27"
     inkscape:window-maximized="1"
     inkscape:current-layer="g1" /><g
     inkscape:groupmode="layer"
     inkscape:label="Image"
     id="g1"><g
       id="g3"
       transform="rotate(90,293.32472,301.3588)"><g
         id="g2"
         transform="translate(12.544008,-72.924612)" /><text
         xml:space="preserve"
         style="font-weight:bold;font-size:96px;line-height:1.25;font-family:'DejaVu Sans';-inkscape-font-specification:'DejaVu Sans Bold';fill:#000000;fill-opacity:1"
         x="209.58252"
         y="547.1413"
         id="text2"><tspan
           sodipodi:role="line"
           id="tspan2"
           x="209.58252"
           y="547.1413"
           style="font-style:normal;font-variant:normal;font-weight:bold;font-stretch:normal;font-size:96px;font-family:'DejaVu Sans';-inkscape-font-specification:'DejaVu Sans Bold';fill:#000000;fill-opacity:1">CV</tspan></text></g><path
       style="fill:#000000;stroke-width:0.626381"
       d="m 170.99899,331.55815 c 1.17365,-1.7906 4.41462,-6.15961 7.20215,-9.7089 11.24786,-14.32167 12.52382,-16.03024 12.52382,-16.77003 0,-0.39251 -1.0638,-2.31894 -2.36399,-4.28096 -6.20062,-9.35687 -7.06475,-15.67968 -2.82085,-20.64003 l 1.73974,-2.03345 6.26381,0.69656 c 13.50266,1.50156 25.07229,7.78528 31.35336,17.0287 3.85124,5.66761 7.19113,15.93745 6.31644,19.42247 -0.2075,0.82676 -1.54591,2.31306 -2.97425,3.30289 -2.07768,1.43983 -3.43073,1.84683 -6.7665,2.03531 -3.56769,0.20159 -4.99802,-0.0756 -9.90937,-1.92037 -3.1569,-1.18578 -6.00407,-1.9893 -6.32703,-1.78559 -0.32296,0.2037 -2.74433,3.18908 -5.38084,6.63418 -2.6365,3.44509 -6.7369,8.80065 -9.11198,11.90123 -6.55266,8.55426 -8.10359,9.86399 -12.05627,10.18128 -2.71624,0.21804 -3.7011,10e-4 -5.50093,-1.21205 -2.5328,-1.70712 -4.39624,-5.01116 -4.35197,-7.71647 0.017,-1.04052 0.98307,-3.33206 2.16466,-5.13477 z m 29.83411,-70.6573 c 4.48743,-5.51215 10.74331,-13.22725 13.90195,-17.14466 3.15865,-3.91741 8.56171,-10.58584 12.0068,-14.81873 3.44509,-4.23289 8.23691,-10.15099 10.64847,-13.15133 11.39731,-14.1799 12.05242,-14.70463 18.35844,-14.70463 h 3.68839 l 4.0793,-5.16765 c 4.06646,-5.15137 11.81824,-14.77444 24.34577,-30.22287 3.63183,-4.47862 8.76743,-10.82072 11.41244,-14.09356 5.58154,-6.90639 9.179,-9.57654 14.84731,-11.02012 3.37858,-0.86046 4.72181,-0.91735 7.89295,-0.3343 l 3.82148,0.70262 5.26104,-3.1652 c 19.13804,-11.51403 43.22918,-20.6047 64.45402,-24.32141 19.08201,-3.34148 27.78339,-4.06725 48.5445,-4.04905 19.29703,0.0169 50.41971,1.81066 63.57764,3.66427 1.20579,0.16987 6.84321,0.73717 12.52762,1.26068 9.44568,0.86991 10.58723,1.10795 13.26249,2.7655 2.52116,1.56208 3.25971,1.74208 5.32423,1.29763 5.2998,-1.14091 13.99601,-2.01531 16.10612,-1.61945 3.00845,0.56438 5.32963,3.6411 5.77767,7.65828 0.28157,2.52464 0.0371,3.63351 -1.43063,6.48998 -2.17007,4.22323 -4.81321,5.73832 -11.87681,6.80795 -11.21613,1.69843 -27.75599,6.26407 -39.23401,10.8301 -9.02374,3.58971 -23.75753,11.36746 -32.12666,16.95919 -11.23944,7.50949 -17.33447,12.52787 -27.58456,22.71193 -10.82301,10.75328 -16.84489,18.28084 -26.31099,32.88966 -1.97963,3.05511 -8.26777,14.90184 -8.76769,16.51814 -0.22688,0.73354 -1.10412,2.70949 -1.94944,4.391 l -1.53692,3.0573 1.93383,3.83289 c 2.80562,5.5608 2.97661,9.26585 1.01521,21.99794 -2.14224,13.90597 -3.59116,23.45606 -5.93955,39.14879 -1.05688,7.06244 -2.1976,14.34701 -2.53492,16.18792 -0.59855,3.26648 -0.56594,3.3945 1.35366,5.31409 4.98606,4.98607 5.13868,6.52893 2.40189,24.28165 -3.74548,24.29567 -4.99198,32.43743 -6.89589,45.04155 -3.43762,22.75765 -3.93387,25.68161 -4.35859,25.68161 -0.22959,0 -1.24532,-0.86809 -2.25718,-1.92908 -2.62818,-2.7558 -9.30446,-6.99076 -14.05416,-8.91498 -10.21963,-4.14022 -22.94782,-3.97442 -34.68211,0.45176 -2.36646,0.89263 -4.63943,1.62297 -5.05104,1.62297 -0.57764,0 -0.56976,-1.25053 0.0345,-5.48084 0.98375,-6.88663 3.49503,-23.53985 5.21875,-34.60753 2.85593,-18.33737 4.44422,-28.79864 5.37318,-35.39051 1.45648,-10.33511 2.37103,-13.0232 5.19052,-15.25628 1.31237,-1.03942 3.14325,-2.23481 4.06862,-2.65644 0.92538,-0.42163 1.6825,-0.95315 1.6825,-1.18114 0,-0.5776 2.80392,-19.37713 4.29908,-28.82427 0.68156,-4.30636 2.11405,-13.74905 3.18332,-20.98375 2.63347,-17.81819 3.0485,-19.97626 4.49495,-23.37262 2.24191,-5.26414 7.67538,-9.82429 13.93661,-11.69657 2.12317,-0.63489 2.5969,-1.14782 3.80962,-4.12487 2.18992,-5.37599 8.23978,-17.12601 12.03094,-23.36648 13.23772,-21.7901 33.78874,-43.83777 53.76854,-57.68431 2.41157,-1.67128 5.23028,-3.67583 6.26381,-4.45456 1.03353,-0.77872 3.7113,-2.45949 5.95061,-3.73503 12.83357,-7.31017 12.66825,-6.75873 1.87915,-6.26824 -9.56452,0.43482 -24.25431,2.6516 -31.63223,4.77349 -2.41157,0.69357 -5.68739,1.63684 -7.27961,2.09616 -7.61311,2.19624 -21.69366,9.42009 -28.73728,14.7433 -13.21477,9.98705 -22.78345,22.54352 -30.65223,40.22328 l -1.85968,4.17837 1.2891,3.65139 c 2.13175,6.03818 1.47047,11.1001 -2.89098,22.12961 -1.97536,4.99539 -5.12158,12.98564 -6.99161,17.75611 -7.47209,19.06134 -12.90296,32.81703 -14.06903,35.63504 l -1.22794,2.9675 1.70073,2.56997 c 1.20837,1.82597 1.77121,3.59626 1.9442,6.11502 0.26727,3.8915 0.55186,3.04116 -9.57217,28.60028 -2.86568,7.23469 -7.36408,18.65048 -9.99645,25.36842 -8.88465,22.67406 -11.89323,30.06627 -12.23674,30.06627 -0.18815,0 -1.5596,-1.67189 -3.04766,-3.71532 -4.69994,-6.45402 -11.86531,-11.95671 -19.56565,-15.02557 -6.81406,-2.71564 -14.85188,-3.6031 -23.82208,-2.6302 -3.828,0.41519 -7.02658,0.67218 -7.10794,0.57111 -0.0814,-0.10108 1.19992,-3.56623 2.8473,-7.70034 1.64738,-4.13411 4.58041,-11.6037 6.51786,-16.59909 1.93745,-4.99539 4.06536,-10.35094 4.72871,-11.90123 0.66335,-1.5503 2.22016,-5.4965 3.45957,-8.76933 2.95996,-7.81616 8.90341,-22.8279 10.29186,-25.9948 0.60417,-1.37804 1.45343,-3.63301 1.88725,-5.01105 1.91374,-6.07908 5.57686,-9.77319 10.55632,-10.64562 l 2.2942,-0.40196 3.69103,-9.50935 c 2.03009,-5.23014 6.57839,-16.838 10.10735,-25.79524 3.52897,-8.95725 7.61869,-19.38649 9.08827,-23.17609 4.93033,-12.71386 9.44274,-17.04817 19.61714,-18.8429 2.31796,-0.40889 2.5155,-0.64382 4.8974,-5.82472 11.16997,-24.29595 28.80109,-43.19545 50.62742,-54.26955 1.8948,-0.96137 3.09412,-1.868 2.66515,-2.01473 -0.42896,-0.14673 -5.09121,0.60378 -10.36055,1.6678 -21.19105,4.27901 -37.50209,10.32981 -55.72565,20.67217 l -3.60168,2.04406 v 3.31932 c 0,6.68837 -1.80654,10.49723 -9.53599,20.10555 -10.75172,13.36522 -30.73805,38.1271 -36.22232,44.8773 -1.88014,2.31414 -1.89218,2.37653 -1.15076,5.96612 1.37593,6.66157 1.32461,6.75593 -13.92088,25.59528 -3.3119,4.09263 -9.89942,12.23295 -14.63893,18.08961 -4.73951,5.85666 -12.39779,15.34297 -17.0184,21.0807 -4.62061,5.73772 -8.77603,10.74338 -9.23425,11.12368 -0.66406,0.55111 -1.19285,-0.29492 -2.60536,-4.16842 -0.97472,-2.67293 -2.76703,-6.53015 -3.98292,-8.5716 -3.02425,-5.07762 -9.52965,-11.50824 -14.82389,-14.65349 -5.50462,-3.27024 -14.27331,-6.27299 -19.82533,-6.78899 -2.47978,-0.23047 -4.22591,-0.68186 -4.20544,-1.08714 0.0193,-0.38116 3.70656,-5.20297 8.19399,-10.71512 z m 60.82357,109.51519 c 0.29018,-1.43383 0.92326,-2.93533 1.40685,-3.33668 1.76478,-1.46464 11.61774,-2.66287 19.42621,-2.36245 6.56935,0.25274 8.12863,0.53552 12.37342,2.24391 8.34792,3.35976 15.07066,9.35692 19.71471,17.58687 l 2.26173,4.00813 -1.46479,2.76117 c -2.66802,5.02926 -9.74018,7.58863 -18.78826,6.79936 l -4.76038,-0.41525 -1.64552,4.57323 c -6.78384,18.85374 -9.94,27.00926 -11.06258,28.58578 -1.8579,2.60917 -5.28624,4.0894 -8.34033,3.60103 -3.44155,-0.55032 -5.23428,-1.89928 -6.78714,-5.10708 -1.82354,-3.76693 -2.16256,-2.47913 7.81129,-29.67268 1.57195,-4.28591 2.85809,-8.10086 2.85809,-8.47768 0,-0.37682 -0.85502,-1.1902 -1.90005,-1.80752 -2.80929,-1.65948 -8.4042,-7.31605 -9.70453,-9.81147 -1.5546,-2.98339 -2.02564,-6.07101 -1.39872,-9.16867 z m 76.71115,57.56169 c 0.16406,-0.85372 1.19115,-1.88773 2.57682,-2.59416 14.64216,-7.46482 30.24861,-8.15722 41.23907,-1.82961 3.12475,1.79903 8.92389,6.58484 11.40958,9.41589 5.90808,6.72893 -1.97048,14.89461 -16.0702,16.65585 l -3.56095,0.44481 -0.43209,2.50418 c -0.23765,1.3773 -0.75049,5.18197 -1.13965,8.45481 -1.31522,11.06101 -3.11072,22.99932 -3.68494,24.50129 -1.60402,4.19557 -7.92501,6.35875 -12.35557,4.22835 -0.97879,-0.47064 -2.45127,-1.84225 -3.2722,-3.04804 -1.80258,-2.64764 -1.73022,-4.94728 0.75877,-24.11394 0.89465,-6.88924 1.62663,-13.11801 1.62663,-13.84171 0,-1.01618 -1.09492,-1.85695 -4.80806,-3.69209 -9.53259,-4.71126 -13.58287,-10.34326 -12.28721,-17.08563 z"
       id="path4" /></g></svg>
