<?xml version="1.0" encoding="UTF-8" standalone="no"?>
<!-- Created with Inkscape (http://www.inkscape.org/) -->

<svg
   version="1.1"
   id="svg1"
   width="600"
   height="600"
   viewBox="0 0 600 600"
   sodipodi:docname="midi.svg"
   inkscape:version="1.3.2 (091e20e, 2023-11-25)"
   inkscape:export-filename="../tuning_fork.png"
   inkscape:export-xdpi="16"
   inkscape:export-ydpi="16"
   xml:space="preserve"
   xmlns:inkscape="http://www.inkscape.org/namespaces/inkscape"
   xmlns:sodipodi="http://sodipodi.sourceforge.net/DTD/sodipodi-0.dtd"
   xmlns="http://www.w3.org/2000/svg"
   xmlns:svg="http://www.w3.org/2000/svg"><defs
     id="defs1" /><sodipodi:namedview
     id="namedview1"
     pagecolor="#ffffff"
     bordercolor="#666666"
     borderopacity="1.0"
     inkscape:showpageshadow="2"
     inkscape:pageopacity="0.0"
     inkscape:pagecheckerboard="0"
     inkscape:deskcolor="#d1d1d1"
     inkscape:zoom="0.75585939"
     inkscape:cx="361.83979"
     inkscape:cy="349.27131"
     inkscape:window-width="1864"
     inkscape:window-height="1016"
     inkscape:window-x="56"
     inkscape:window-y="27"
     inkscape:window-maximized="1"
     inkscape:current-layer="g1" /><g
     inkscape:groupmode="layer"
     inkscape:label="Image"
     id="g1"><g
       id="g3"
       transform="rotate(90,293.32472,301.3588)"><g
         id="g2"
         transform="translate(12.544008,-72.924612)" /><text
         xml:space="preserve"
         style="font-weight:bold;font-size:96px;line-height:1.25;font-family:'DejaVu Sans';-inkscape-font-specification:'DejaVu Sans Bold';fill:#000000;fill-opacity:1"
         x="169.58252"
         y="547.1413"
         id="text2"><tspan
           sodipodi:role="line"
           id="tspan2"
           x="169.58252"
           y="547.1413"
           style="font-style:normal;font-variant:normal;font-weight:bold;font-stretch:normal;font-size:96px;font-family:'DejaVu Sans';-inkscape-font-specification:'DejaVu Sans Bold';fill:#000000;fill-opacity:1">MIDI </tspan></text></g><path
       style="fill:#000000"
       d="m 170.71703,356.45848 c 0.6263,-0.52379 3.14217,-2.15779 5.59084,-3.63112 11.28278,-6.7887 23.36264,-17.65324 28.97322,-26.05828 4.23356,-6.34219 8.8734,-17.11736 9.89608,-22.98188 0.80857,-4.63667 0.80839,-15.79006 -3.2e-4,-20.42756 -3.12756,-17.93476 -18.46312,-37.10826 -39.75367,-49.7026 -3.38686,-2.00347 -4.71956,-3.02165 -4.90093,-3.74428 -0.46339,-1.8463 5.30994,-16.34452 10.87668,-27.31394 10.3254,-20.34652 22.7175,-36.8884 41.04078,-54.78422 15.20335,-14.84867 29.01577,-24.61886 48.82567,-34.53673 41.32152,-20.68772 86.17551,-26.72805 131.15519,-17.66221 24.19108,4.87582 48.7962,14.99851 69.97257,28.78712 33.03497,21.51014 60.0474,53.49483 75.29775,89.15805 9.39344,21.96673 15.10016,45.76713 16.16573,67.42071 0.39771,8.08191 -0.0796,28.58475 -0.84587,36.33332 -1.08953,11.01749 -4.87396,27.9017 -9.0941,40.57321 -10.20787,30.65049 -25.95458,56.04646 -49.09387,79.17759 -22.03743,22.02967 -46.1022,37.25119 -75.36903,47.67266 -15.85671,5.64633 -36.03557,10.00685 -50.78408,10.97411 -8.77455,0.57547 -28.98826,0.24699 -38.60416,-0.62733 -22.0562,-2.00544 -43.84015,-8.31632 -66.26704,-19.19777 -21.75316,-10.55455 -35.67035,-20.33632 -52.57675,-36.95382 -17.95078,-17.64405 -29.67826,-33.49182 -39.94338,-53.97696 -3.03937,-6.06538 -8.26479,-18.08966 -10.32108,-23.74997 l -1.37894,-3.79578 z M 338.50216,179.90391 c 2.99435,6.02846 8.38656,11.38125 14.615,14.50814 3.08999,1.55129 6.80951,2.05852 13.5229,1.84414 5.05581,-0.16145 6.18315,-0.32811 8.4288,-1.24603 4.30754,-1.76073 7.13451,-3.66289 10.61207,-7.14045 5.95343,-5.95343 8.07058,-10.85485 8.37875,-19.39763 0.229,-6.34827 -0.29909,-9.01297 -2.78203,-14.03787 -3.17126,-6.41794 -7.13391,-10.30492 -14.01428,-13.74671 l -3.88356,-1.94269 h -8.33514 -8.33514 l -4.09001,2.02798 c -3.53125,1.75093 -4.62781,2.5688 -8.02672,5.98674 -2.89463,2.91084 -4.36144,4.77534 -5.54119,7.04355 -2.58316,4.96641 -2.68831,5.54756 -2.58694,14.29709 l 0.0914,7.88565 z m -1.33401,250.10546 c 2.43068,7.21537 9.01072,14.22116 16.77278,17.85805 2.7526,1.28972 3.0571,1.33897 9.26294,1.49824 7.8118,0.20048 9.98229,-0.1974 15.00411,-2.75044 6.61263,-3.36179 12.59567,-10.24951 14.7648,-16.99734 1.22573,-3.81304 1.54354,-12.38596 0.59693,-16.10227 -2.22358,-8.72965 -7.83492,-15.5233 -16.30634,-19.7421 l -3.88356,-1.93403 h -8.29636 -8.29636 l -2.84616,1.34788 c -6.1964,2.93448 -12.06076,8.35909 -14.92098,13.80209 -2.42386,4.61261 -2.61222,5.57161 -2.64273,13.4549 -0.0235,6.07077 0.0945,7.49766 0.79093,9.56502 z m 88.76684,-219.01078 c 0.49841,3.09603 3.48111,9.20189 5.85265,11.98088 2.87698,3.3713 6.09835,5.88859 10.05247,7.85539 4.39514,2.18615 6.65671,2.66562 12.57333,2.66562 5.67266,0 8.60177,-0.55046 12.28356,-2.30844 6.29617,-3.00628 11.44998,-8.2301 14.64027,-14.83915 1.4123,-2.92573 1.64875,-3.86299 2.00836,-7.96095 0.41624,-4.74328 0.0922,-9.81655 -0.85433,-13.37548 -0.97828,-3.67834 -2.94832,-6.62592 -7.4196,-11.10121 -7.13504,-7.14145 -11.06518,-8.51044 -23.36923,-8.14028 l -5.89345,0.17731 -3.42953,1.71209 c -1.88624,0.94165 -4.56099,2.64637 -5.94388,3.78827 -5.14851,4.25131 -9.56969,11.22472 -10.48659,16.54027 -0.46749,2.71014 -0.4755,10.13912 -0.014,13.00568 z m 0.0289,179.10657 c 1.51161,8.17704 10.11189,18.17735 18.09223,21.03745 2.94741,1.05633 13.30646,1.49984 17.59367,0.75326 4.60847,-0.80253 9.98232,-3.99113 14.07895,-8.35382 5.91446,-6.29858 7.75766,-11.29197 7.74887,-20.99235 -0.006,-6.33201 -0.56055,-8.63532 -3.24948,-13.49048 -1.86041,-3.35917 -7.19326,-8.78465 -10.62479,-10.80933 -4.98387,-2.94061 -6.96783,-3.48634 -13.42328,-3.69238 -7.29124,-0.23271 -9.92106,0.24279 -14.55735,2.63212 -8.0785,4.16329 -14.37021,12.02295 -15.67372,19.57977 -0.48331,2.80184 -0.4745,10.68838 0.0149,13.33576 z m 38.03046,-85.75518 c 3.06349,7.51155 10.72234,15.02045 17.88995,17.53966 1.88488,0.66248 3.41167,0.79265 9.2975,0.79265 6.0459,0 7.40387,-0.12181 9.59797,-0.86095 4.16789,-1.40406 8.0873,-3.94527 11.71193,-7.59361 6.01928,-6.05864 8.81716,-13.59576 8.27991,-22.30491 -0.26657,-4.32107 -1.02436,-7.08054 -3.09843,-11.2828 -2.86164,-5.79796 -7.4176,-10.2125 -13.97425,-13.54049 -2.73613,-1.38878 -3.39012,-1.54373 -7.55126,-1.78907 -2.50564,-0.14773 -6.553,-0.1483 -8.99415,-10e-4 -4.04137,0.24343 -4.71316,0.40633 -7.50927,1.82086 -6.83966,3.46013 -12.21907,8.89685 -15.16069,15.3222 -1.49534,3.26627 -1.76153,5.35006 -1.6317,12.77359 0.10377,5.93306 0.22016,6.86259 1.14249,9.12413 z"
       id="path3-0" /></g></svg>
