<?xml version="1.0" encoding="UTF-8" standalone="no"?>
<!-- Created with Inkscape (http://www.inkscape.org/) -->

<svg
   version="1.1"
   id="svg1"
   width="600"
   height="600"
   viewBox="0 0 600 600"
   sodipodi:docname="stats.svg"
   inkscape:version="1.3.2 (091e20e, 2023-11-25)"
   inkscape:export-filename="../tuning_fork.png"
   inkscape:export-xdpi="16"
   inkscape:export-ydpi="16"
   xml:space="preserve"
   xmlns:inkscape="http://www.inkscape.org/namespaces/inkscape"
   xmlns:sodipodi="http://sodipodi.sourceforge.net/DTD/sodipodi-0.dtd"
   xmlns="http://www.w3.org/2000/svg"
   xmlns:svg="http://www.w3.org/2000/svg"><defs
     id="defs1" /><sodipodi:namedview
     id="namedview1"
     pagecolor="#ffffff"
     bordercolor="#666666"
     borderopacity="1.0"
     inkscape:showpageshadow="2"
     inkscape:pageopacity="0.0"
     inkscape:pagecheckerboard="0"
     inkscape:deskcolor="#d1d1d1"
     inkscape:zoom="0.3779297"
     inkscape:cx="623.13177"
     inkscape:cy="706.48061"
     inkscape:window-width="1864"
     inkscape:window-height="1016"
     inkscape:window-x="56"
     inkscape:window-y="27"
     inkscape:window-maximized="1"
     inkscape:current-layer="g1" /><g
     inkscape:groupmode="layer"
     inkscape:label="Image"
     id="g1"><g
       id="g3"
       transform="rotate(90,293.32472,301.3588)"><g
         id="g2"
         transform="translate(12.544008,-72.924612)" /><text
         xml:space="preserve"
         style="font-weight:bold;font-size:96px;line-height:1.25;font-family:'DejaVu Sans';-inkscape-font-specification:'DejaVu Sans Bold';fill:#000000;fill-opacity:1"
         x="31.58252"
         y="547.1413"
         id="text2"><tspan
           sodipodi:role="line"
           id="tspan2"
           x="31.58252"
           y="547.1413"
           style="font-style:normal;font-variant:normal;font-weight:bold;font-stretch:normal;font-size:96px;font-family:'DejaVu Sans';-inkscape-font-specification:'DejaVu Sans Bold';fill:#000000;fill-opacity:1">Statistics</tspan></text></g><path
       style="fill:#000000;stroke-width:0.336884"
       d="m 238.69989,96.997241 h 65.69248 v 34.699109 34.69911 H 238.69989 173.00738 V 131.69635 96.997241 Z m 43.29122,108.813709 h 108.98374 l -0.0858,34.78332 -0.0858,34.78332 -108.89791,0.0847 -108.89796,0.0848 V 240.679 205.81096 Z m -22.23593,108.81369 h 86.74776 v 34.86755 34.86756 h -86.74776 -86.7478 v -34.86756 -34.86755 z m 54.40684,109.15059 h 141.15461 v 34.69911 34.69912 H 314.16202 173.00738 v -34.69912 -34.69911 z m 15.82263,-295.52952 c 1.75814,-9.64377 9.16543,-16.78322 18.77571,-18.09681 9.10539,-1.24459 18.22046,3.63917 22.31487,11.95612 1.49914,3.04518 2.14685,5.93193 2.15202,9.59133 0.006,3.85927 -0.67296,6.61584 -2.47913,10.07311 l -1.30252,2.49321 8.15565,9.80308 c 4.4856,5.39168 11.41345,13.73126 15.39521,18.53239 25.77761,31.08215 39.21234,47.25413 39.58976,47.65596 0.36692,0.39066 0.76602,0.34703 2.57072,-0.28104 2.98361,-1.03833 8.73422,-1.3121 11.73759,-0.55878 8.20653,2.05842 14.6488,8.59883 16.34206,16.59108 2.30841,10.89568 -3.78244,21.58443 -14.42147,25.30801 -1.91353,0.66973 -3.20863,0.86893 -6.13165,0.94321 -3.49917,0.0889 -3.72787,0.13802 -4.10302,0.88056 -0.21852,0.43252 -1.83319,4.12154 -3.58818,8.19785 -1.75499,4.07629 -6.32987,14.68816 -10.16641,23.58191 -3.83654,8.89375 -8.91143,20.66163 -11.27752,26.15087 l -4.30202,9.9804 2.16333,2.29485 c 2.42396,2.57138 4.48597,6.37248 5.36716,9.89384 0.82821,3.30965 0.53127,8.54979 -0.66944,11.81392 -0.51118,1.38966 -0.95619,2.70505 -0.98892,2.92309 -0.0327,0.21806 2.59345,2.79945 5.83597,5.7364 7.72905,7.00076 46.20328,41.71025 67.65868,61.03823 l 16.95757,15.27613 2.60742,-1.2236 c 4.57683,-2.14777 9.56783,-2.67197 14.43454,-1.51604 7.16281,1.70129 13.56739,7.90553 15.78774,15.29388 0.93247,3.10287 0.85259,9.05124 -0.16285,12.12784 -2.81175,8.519 -9.42448,14.07814 -18.23226,15.3273 -8.97791,1.2733 -18.33095,-3.88893 -22.27702,-12.29534 -1.40625,-2.99574 -2.00764,-5.70093 -2.02347,-9.10178 -0.0161,-3.4693 0.0939,-4.1135 1.28422,-7.51765 0.7317,-2.09255 0.79261,-2.53691 0.39833,-2.90626 -0.256,-0.2398 -12.13849,-10.94541 -26.40555,-23.79025 -27.61744,-24.86438 -36.96573,-33.2975 -53.48799,-48.2519 l -10.36676,-9.38301 -2.77173,1.18092 c -3.69735,1.5753 -6.31734,2.04367 -10.152,1.81489 -5.49671,-0.32792 -10.06441,-2.39195 -13.99755,-6.32507 -2.54398,-2.544 -4.07308,-4.97084 -5.33262,-8.46349 -0.79111,-2.1937 -0.89108,-2.96226 -0.89108,-6.85041 0,-3.88816 0.0999,-4.65672 0.89108,-6.85042 1.2798,-3.54881 2.79695,-5.93331 5.49401,-8.63495 4.12192,-4.12893 9.57171,-6.33626 15.32094,-6.20545 l 2.86353,0.0651 2.26545,-5.18917 c 1.24599,-2.85404 7.94248,-18.35125 14.88107,-34.43818 l 12.61562,-29.24896 -1.91102,-1.95316 c -3.92793,-4.01451 -5.79721,-8.35211 -6.03345,-14.00038 -0.2125,-5.08069 0.72998,-8.7813 3.26661,-12.826 0.47821,-0.76251 3.87441,3.43888 -37.66819,-46.59857 -7.47701,-9.00594 -16.26085,-19.60098 -19.51964,-23.54452 -4.40587,-5.33164 -6.05969,-7.11221 -6.45008,-6.94444 -4.14105,1.77968 -10.26036,2.13686 -14.50569,0.8467 -3.79822,-1.15428 -6.58026,-2.84546 -9.43284,-5.73412 -2.75148,-2.7863 -4.24358,-5.27167 -5.36521,-8.93677 -0.80525,-2.63131 -1.14703,-7.30625 -0.70958,-9.70571 z"
       id="path4" /></g></svg>
